<svg xmlns="http://www.w3.org/2000/svg" viewBox="0 0 263.72 39.98"><defs><style>.cls-1{font-size:16.75px;fill:#fff;font-family:GillSans, Gill Sans;}.cls-2{letter-spacing:0.26em;}.cls-3{letter-spacing:0.26em;}.cls-4{letter-spacing:0.26em;}.cls-5{letter-spacing:0.26em;}.cls-6{letter-spacing:0.22em;}.cls-7{fill:#56a770;fill-rule:evenodd;}.cls-8{fill:#f5d757;}.cls-9{fill:#5e8ecd;}</style></defs><g id="Capa_2" data-name="Capa 2"><g id="Capa_1-2" data-name="Capa 1"><text class="cls-1" transform="translate(37.7 25)"><tspan class="cls-2">EX</tspan><tspan class="cls-3" x="28.92" y="0">P</tspan><tspan class="cls-2" x="41.81" y="0">E</tspan><tspan class="cls-3" x="54.53" y="0">D</tspan><tspan class="cls-4" x="71.45" y="0">IC</tspan><tspan class="cls-5" x="96.17" y="0">I</tspan><tspan class="cls-2" x="104.72" y="0">O</tspan><tspan class="cls-5" x="122.85" y="0">NE</tspan><tspan class="cls-2" x="153.01" y="0">S</tspan><tspan class="cls-3" x="165.03" y="0"> </tspan><tspan class="cls-4" x="174.04" y="0">IG</tspan><tspan class="cls-6" x="199.3" y="0">A</tspan><tspan x="214.16" y="0">C</tspan></text><polygon class="cls-7" points="0 22.42 13.89 0 13.9 8.58 27.72 17.02 13.95 39.98 13.88 31.48 0 22.42"/><path class="cls-8" d="M20.67,19.05a6.87,6.87,0,0,0-5.93-5.88,8.49,8.49,0,0,0-.88-.05A6.88,6.88,0,1,0,20.74,20a7.3,7.3,0,0,0-.07-.94"/><path class="cls-9" d="M18.13,19.4a4.3,4.3,0,0,0-3.72-3.68,3.31,3.31,0,0,0-.55,0A4.31,4.31,0,1,0,18.17,20a3.81,3.81,0,0,0,0-.59"/></g></g></svg>