<svg xmlns="http://www.w3.org/2000/svg" viewBox="0 0 85.06 144.51"><defs><style>.cls-1{fill:#f14a36;}.cls-2{fill:#f2efe9;}.cls-3{fill:#ffc800;}.cls-4{fill:#0e243f;}.cls-5{fill:none;stroke:#f1685a;stroke-miterlimit:10;stroke-width:1.12px;}.cls-6{fill:#4473fd;}</style></defs><g id="Capa_2" data-name="Capa 2"><g id="Layer_1" data-name="Layer 1"><polygon class="cls-1" points="83.46 105.1 44.13 72.37 83.46 40.34 83.46 105.1"/><path class="cls-1" d="M20.69,0s30,15.1,30,67.06l-30-31.77Z"/><path class="cls-1" d="M20.69,144.51s30-14.71,30-66.68l-30,30.46Z"/><path class="cls-2" d="M12.54,72.81A9.59,9.59,0,0,1,15.07,77c.35,1.18,2.16.63,2.06,1.79,3-2.36,2.74-4.64,1.57-8.53A9.57,9.57,0,0,0,6.78,63.8C3.08,64.91.13,70.63,0,72.19a9.34,9.34,0,0,1,3.14-1.65,9.59,9.59,0,0,1,9.4,2.27"/><path class="cls-3" d="M5.19,63.93a17.58,17.58,0,0,0,15.5,17.46V63.28H5.19Z"/><path class="cls-4" d="M9.55,63.75A12.63,12.63,0,0,0,20.69,76.29v-13H9.55Z"/><line class="cls-5" x1="47.18" y1="72.28" x2="84.77" y2="50.75"/><line class="cls-5" x1="47.18" y1="72.28" x2="84.77" y2="60.5"/><line class="cls-5" x1="47.18" y1="72.28" x2="84.77" y2="72.33"/><line class="cls-5" x1="84.77" y1="95.25" x2="47.18" y2="72.28"/><line class="cls-5" x1="84.77" y1="84.89" x2="47.18" y2="72.28"/><path class="cls-4" d="M42.11,72.33A71.71,71.71,0,0,0,20.69,21V123.64A71.74,71.74,0,0,0,42.11,72.33"/><polygon class="cls-4" points="20.69 35.45 20.69 108.44 50.69 77.83 50.69 67.06 20.69 35.45"/><polygon class="cls-6" points="40.18 88.57 20.69 72.16 40.18 55.99 40.18 88.57"/><polygon class="cls-6" points="31.68 97.46 20.69 89.36 31.68 81.38 31.68 97.46"/><polygon class="cls-6" points="31.68 63.33 20.69 55.23 31.68 47.25 31.68 63.33"/></g></g></svg>